<svg width="16" height="16" viewBox="0 0 16 16" fill="none" xmlns="http://www.w3.org/2000/svg">
<path d="M8.08974 9.13866C8.07486 9.13866 8.05253 9.13866 8.03765 9.13866C8.01532 9.13866 7.98556 9.13866 7.96323 9.13866C6.27391 9.08657 5.00879 7.76936 5.00879 6.14702C5.00879 4.49493 6.35577 3.14795 8.00788 3.14795C9.65997 3.14795 11.007 4.49493 11.007 6.14702C10.9995 7.7768 9.72695 9.08657 8.11207 9.13866C8.09718 9.13866 8.09718 9.13866 8.08974 9.13866ZM8.00044 4.25679C6.95858 4.25679 6.11763 5.10516 6.11763 6.13958C6.11763 7.15913 6.91393 7.98517 7.92602 8.02238C7.94835 8.01494 8.02277 8.01494 8.09718 8.02238C9.09439 7.97029 9.87579 7.15169 9.88323 6.13958C9.88323 5.10516 9.0423 4.25679 8.00044 4.25679Z" fill="#4B4A4A"/>
<path d="M8.00062 16.0003C5.99876 16.0003 4.08621 15.2561 2.60528 13.9017C2.47132 13.7826 2.41179 13.604 2.42667 13.4328C2.52342 12.5473 3.07411 11.7212 3.98946 11.111C6.20714 9.63749 9.80155 9.63749 12.0118 11.111C12.9271 11.7287 13.4778 12.5473 13.5746 13.4328C13.5969 13.6114 13.5299 13.7826 13.396 13.9017C11.915 15.2561 10.0025 16.0003 8.00062 16.0003ZM3.59504 13.284C4.83039 14.3184 6.38574 14.884 8.00062 14.884C9.6155 14.884 11.1709 14.3184 12.4062 13.284C12.2722 12.83 11.915 12.391 11.3867 12.0338C9.55597 10.8133 6.45272 10.8133 4.60714 12.0338C4.07876 12.391 3.729 12.83 3.59504 13.284Z" fill="#4B4A4A"/>
<path d="M8 16C3.58698 16 0 12.413 0 8C0 3.58698 3.58698 0 8 0C12.413 0 16 3.58698 16 8C16 12.413 12.413 16 8 16ZM8 1.11628C4.20465 1.11628 1.11628 4.20465 1.11628 8C1.11628 11.7953 4.20465 14.8837 8 14.8837C11.7953 14.8837 14.8837 11.7953 14.8837 8C14.8837 4.20465 11.7953 1.11628 8 1.11628Z" fill="#4B4A4A"/>
</svg>
