<svg width="140" height="45" viewBox="0 0 140 45" fill="none" xmlns="http://www.w3.org/2000/svg">
<rect width="140" height="45" rx="22.5" fill="#F2F2F2"/>
<path d="M43.62 17.228V27H41.66V20.644L39.042 27H37.558L34.926 20.644V27H32.966V17.228H35.192L38.3 24.494L41.408 17.228H43.62ZM52.8798 19.244V27H50.9058V26.02C50.6538 26.356 50.3225 26.622 49.9118 26.818C49.5105 27.0047 49.0718 27.098 48.5958 27.098C47.9891 27.098 47.4525 26.972 46.9858 26.72C46.5191 26.4587 46.1505 26.0807 45.8798 25.586C45.6185 25.082 45.4878 24.4847 45.4878 23.794V19.244H47.4478V23.514C47.4478 24.13 47.6018 24.606 47.9098 24.942C48.2178 25.2687 48.6378 25.432 49.1698 25.432C49.7111 25.432 50.1358 25.2687 50.4438 24.942C50.7518 24.606 50.9058 24.13 50.9058 23.514V19.244H52.8798ZM54.3097 23.094C54.3097 22.31 54.4637 21.6147 54.7717 21.008C55.089 20.4013 55.5137 19.9347 56.0457 19.608C56.587 19.2813 57.189 19.118 57.8517 19.118C58.4303 19.118 58.9343 19.2347 59.3637 19.468C59.8023 19.7013 60.1523 19.9953 60.4137 20.35V19.244H62.3877V27H60.4137V25.866C60.1617 26.23 59.8117 26.5333 59.3637 26.776C58.925 27.0093 58.4163 27.126 57.8377 27.126C57.1843 27.126 56.587 26.958 56.0457 26.622C55.5137 26.286 55.089 25.8147 54.7717 25.208C54.4637 24.592 54.3097 23.8873 54.3097 23.094ZM60.4137 23.122C60.4137 22.646 60.3203 22.24 60.1337 21.904C59.947 21.5587 59.695 21.2973 59.3777 21.12C59.0603 20.9333 58.7197 20.84 58.3557 20.84C57.9917 20.84 57.6557 20.9287 57.3477 21.106C57.0397 21.2833 56.7877 21.5447 56.5917 21.89C56.405 22.226 56.3117 22.6273 56.3117 23.094C56.3117 23.5607 56.405 23.9713 56.5917 24.326C56.7877 24.6713 57.0397 24.9373 57.3477 25.124C57.665 25.3107 58.001 25.404 58.3557 25.404C58.7197 25.404 59.0603 25.3153 59.3777 25.138C59.695 24.9513 59.947 24.69 60.1337 24.354C60.3203 24.0087 60.4137 23.598 60.4137 23.122ZM74.2879 17.228V18.81H71.6839V27H69.7239V18.81H67.1199V17.228H74.2879ZM80.086 19.132C80.674 19.132 81.1966 19.2627 81.654 19.524C82.1113 19.776 82.466 20.154 82.718 20.658C82.9793 21.1527 83.11 21.75 83.11 22.45V27H81.15V22.716C81.15 22.1 80.996 21.6287 80.688 21.302C80.38 20.966 79.96 20.798 79.428 20.798C78.8866 20.798 78.4573 20.966 78.14 21.302C77.832 21.6287 77.678 22.1 77.678 22.716V27H75.718V16.64H77.678V20.21C77.93 19.874 78.266 19.6127 78.686 19.426C79.106 19.23 79.5726 19.132 80.086 19.132ZM92.1838 22.954C92.1838 23.234 92.1651 23.486 92.1278 23.71H86.4578C86.5045 24.27 86.7005 24.7087 87.0458 25.026C87.3911 25.3433 87.8158 25.502 88.3198 25.502C89.0478 25.502 89.5658 25.1893 89.8738 24.564H91.9878C91.7638 25.3107 91.3345 25.9267 90.6998 26.412C90.0651 26.888 89.2858 27.126 88.3618 27.126C87.6151 27.126 86.9431 26.9627 86.3458 26.636C85.7578 26.3 85.2958 25.8287 84.9598 25.222C84.6331 24.6153 84.4698 23.9153 84.4698 23.122C84.4698 22.3193 84.6331 21.6147 84.9598 21.008C85.2865 20.4013 85.7438 19.9347 86.3318 19.608C86.9198 19.2813 87.5965 19.118 88.3618 19.118C89.0991 19.118 89.7571 19.2767 90.3358 19.594C90.9238 19.9113 91.3765 20.364 91.6938 20.952C92.0205 21.5307 92.1838 22.198 92.1838 22.954ZM90.1538 22.394C90.1445 21.89 89.9625 21.4887 89.6078 21.19C89.2531 20.882 88.8191 20.728 88.3058 20.728C87.8205 20.728 87.4098 20.8773 87.0738 21.176C86.7471 21.4653 86.5465 21.8713 86.4718 22.394H90.1538ZM88.3338 17.494L86.2478 18.67V17.242L88.3338 16.108L90.4058 17.242V18.67L88.3338 17.494ZM103.246 19.132C104.198 19.132 104.964 19.426 105.542 20.014C106.13 20.5927 106.424 21.4047 106.424 22.45V27H104.464V22.716C104.464 22.1093 104.31 21.6473 104.002 21.33C103.694 21.0033 103.274 20.84 102.742 20.84C102.21 20.84 101.786 21.0033 101.468 21.33C101.16 21.6473 101.006 22.1093 101.006 22.716V27H99.0464V22.716C99.0464 22.1093 98.8924 21.6473 98.5844 21.33C98.2764 21.0033 97.8564 20.84 97.3244 20.84C96.7831 20.84 96.3538 21.0033 96.0364 21.33C95.7284 21.6473 95.5744 22.1093 95.5744 22.716V27H93.6144V19.244H95.5744V20.182C95.8264 19.8553 96.1484 19.5987 96.5404 19.412C96.9418 19.2253 97.3804 19.132 97.8564 19.132C98.4631 19.132 99.0044 19.2627 99.4804 19.524C99.9564 19.776 100.325 20.14 100.586 20.616C100.838 20.168 101.202 19.8087 101.678 19.538C102.164 19.2673 102.686 19.132 103.246 19.132Z" fill="#4D4D4D"/>
</svg>
