<svg width="142" height="45" viewBox="0 0 142 45" fill="none" xmlns="http://www.w3.org/2000/svg">
<rect width="142" height="45" rx="22.5" fill="#C58A66"/>
<path d="M38.51 21.988C39.0607 22.0907 39.5133 22.366 39.868 22.814C40.2227 23.262 40.4 23.7753 40.4 24.354C40.4 24.8767 40.2693 25.3387 40.008 25.74C39.756 26.132 39.3873 26.44 38.902 26.664C38.4167 26.888 37.8427 27 37.18 27H32.966V17.228H36.998C37.6607 17.228 38.23 17.3353 38.706 17.55C39.1913 17.7647 39.5553 18.0633 39.798 18.446C40.05 18.8287 40.176 19.2627 40.176 19.748C40.176 20.3173 40.022 20.7933 39.714 21.176C39.4153 21.5587 39.014 21.8293 38.51 21.988ZM34.926 21.26H36.718C37.1847 21.26 37.544 21.1573 37.796 20.952C38.048 20.7373 38.174 20.434 38.174 20.042C38.174 19.65 38.048 19.3467 37.796 19.132C37.544 18.9173 37.1847 18.81 36.718 18.81H34.926V21.26ZM36.9 25.404C37.376 25.404 37.7447 25.292 38.006 25.068C38.2767 24.844 38.412 24.5267 38.412 24.116C38.412 23.696 38.272 23.3693 37.992 23.136C37.712 22.8933 37.334 22.772 36.858 22.772H34.926V25.404H36.9ZM43.3621 18.516L43.0821 17.312L45.3641 15.786H45.5881L47.8561 17.312L47.5761 18.516L45.4761 17.662L43.3621 18.516ZM45.4061 27.126C44.6594 27.126 43.9874 26.9627 43.3901 26.636C42.7928 26.3 42.3214 25.8287 41.9761 25.222C41.6401 24.6153 41.4721 23.9153 41.4721 23.122C41.4721 22.3287 41.6448 21.6287 41.9901 21.022C42.3448 20.4153 42.8254 19.9487 43.4321 19.622C44.0388 19.286 44.7154 19.118 45.4621 19.118C46.2088 19.118 46.8854 19.286 47.4921 19.622C48.0988 19.9487 48.5748 20.4153 48.9201 21.022C49.2748 21.6287 49.4521 22.3287 49.4521 23.122C49.4521 23.9153 49.2701 24.6153 48.9061 25.222C48.5514 25.8287 48.0661 26.3 47.4501 26.636C46.8434 26.9627 46.1621 27.126 45.4061 27.126ZM45.4061 25.418C45.7608 25.418 46.0921 25.334 46.4001 25.166C46.7174 24.9887 46.9694 24.7273 47.1561 24.382C47.3428 24.0367 47.4361 23.6167 47.4361 23.122C47.4361 22.3847 47.2401 21.82 46.8481 21.428C46.4654 21.0267 45.9941 20.826 45.4341 20.826C44.8741 20.826 44.4028 21.0267 44.0201 21.428C43.6468 21.82 43.4601 22.3847 43.4601 23.122C43.4601 23.8593 43.6421 24.4287 44.0061 24.83C44.3794 25.222 44.8461 25.418 45.4061 25.418ZM44.3001 28.876C44.3001 28.5587 44.4074 28.2927 44.6221 28.078C44.8461 27.8727 45.1168 27.77 45.4341 27.77C45.7701 27.77 46.0501 27.868 46.2741 28.064C46.5074 28.2693 46.6241 28.54 46.6241 28.876C46.6241 29.2027 46.5074 29.464 46.2741 29.66C46.0408 29.8653 45.7608 29.968 45.4341 29.968C45.1168 29.968 44.8461 29.8653 44.6221 29.66C44.4074 29.464 44.3001 29.2027 44.3001 28.876ZM56.1858 25.446H59.4058V27H54.2258V17.228H56.1858V25.446ZM64.0955 27.126C63.3489 27.126 62.6769 26.9627 62.0795 26.636C61.4822 26.3 61.0109 25.8287 60.6655 25.222C60.3295 24.6153 60.1615 23.9153 60.1615 23.122C60.1615 22.3287 60.3342 21.6287 60.6795 21.022C61.0342 20.4153 61.5149 19.9487 62.1215 19.622C62.7282 19.286 63.4049 19.118 64.1515 19.118C64.8982 19.118 65.5749 19.286 66.1815 19.622C66.7882 19.9487 67.2642 20.4153 67.6095 21.022C67.9642 21.6287 68.1415 22.3287 68.1415 23.122C68.1415 23.9153 67.9595 24.6153 67.5955 25.222C67.2409 25.8287 66.7555 26.3 66.1395 26.636C65.5329 26.9627 64.8515 27.126 64.0955 27.126ZM64.0955 25.418C64.4502 25.418 64.7815 25.334 65.0895 25.166C65.4069 24.9887 65.6589 24.7273 65.8455 24.382C66.0322 24.0367 66.1255 23.6167 66.1255 23.122C66.1255 22.3847 65.9295 21.82 65.5375 21.428C65.1549 21.0267 64.6835 20.826 64.1235 20.826C63.5635 20.826 63.0922 21.0267 62.7095 21.428C62.3362 21.82 62.1495 22.3847 62.1495 23.122C62.1495 23.8593 62.3315 24.4287 62.6955 24.83C63.0689 25.222 63.5355 25.418 64.0955 25.418ZM62.9895 28.876C62.9895 28.5587 63.0969 28.2927 63.3115 28.078C63.5355 27.8727 63.8062 27.77 64.1235 27.77C64.4595 27.77 64.7395 27.868 64.9635 28.064C65.1969 28.2693 65.3135 28.54 65.3135 28.876C65.3135 29.2027 65.1969 29.464 64.9635 29.66C64.7302 29.8653 64.4502 29.968 64.1235 29.968C63.8062 29.968 63.5355 29.8653 63.3115 29.66C63.0969 29.464 62.9895 29.2027 62.9895 28.876ZM69.0753 23.122C69.0753 22.3193 69.2386 21.6193 69.5653 21.022C69.8919 20.4153 70.3446 19.9487 70.9233 19.622C71.5019 19.286 72.1646 19.118 72.9113 19.118C73.8726 19.118 74.6659 19.3607 75.2913 19.846C75.9259 20.322 76.3506 20.994 76.5653 21.862H74.4513C74.3393 21.526 74.1479 21.2647 73.8773 21.078C73.6159 20.882 73.2893 20.784 72.8973 20.784C72.3373 20.784 71.8939 20.9893 71.5673 21.4C71.2406 21.8013 71.0773 22.3753 71.0773 23.122C71.0773 23.8593 71.2406 24.4333 71.5673 24.844C71.8939 25.2453 72.3373 25.446 72.8973 25.446C73.6906 25.446 74.2086 25.0913 74.4513 24.382H76.5653C76.3506 25.222 75.9259 25.8893 75.2913 26.384C74.6566 26.8787 73.8633 27.126 72.9113 27.126C72.1646 27.126 71.5019 26.9627 70.9233 26.636C70.3446 26.3 69.8919 25.8333 69.5653 25.236C69.2386 24.6293 69.0753 23.9247 69.0753 23.122Z" fill="white"/>
<path d="M107 18H98" stroke="white" stroke-width="1.5" stroke-linecap="round" stroke-linejoin="round"/>
<path d="M102 27H93" stroke="white" stroke-width="1.5" stroke-linecap="round" stroke-linejoin="round"/>
<circle cx="94" cy="18" r="4" stroke="white" stroke-width="1.5"/>
<circle cx="106" cy="27" r="4" stroke="white" stroke-width="1.5"/>
</svg>
