<svg width="155" height="21" viewBox="0 0 155 21" fill="none" xmlns="http://www.w3.org/2000/svg">
<path d="M9.30996 14.9111L12.8565 17.1577C13.3099 17.4446 13.8724 17.0177 13.738 16.4884L12.7136 12.4581C12.6847 12.3458 12.6881 12.2276 12.7233 12.1172C12.7585 12.0067 12.8242 11.9085 12.9128 11.8337L16.0932 9.18712C16.5105 8.83949 16.2956 8.14593 15.7585 8.11105L11.6055 7.84105C11.4937 7.83312 11.3865 7.79359 11.2962 7.72707C11.206 7.66055 11.1365 7.56977 11.0959 7.4653L9.54677 3.56493C9.50459 3.45408 9.42972 3.35867 9.33207 3.29136C9.23443 3.22404 9.11863 3.18799 9.00002 3.18799C8.88142 3.18799 8.76562 3.22404 8.66798 3.29136C8.57033 3.35867 8.49546 3.45408 8.45327 3.56493L6.90415 7.4653C6.8636 7.56988 6.79416 7.66077 6.70394 7.7274C6.61371 7.79402 6.5064 7.83364 6.39453 7.84162L2.24159 8.11161C1.70496 8.14593 1.48896 8.83949 1.9069 9.18712L5.08727 11.8342C5.17576 11.909 5.24138 12.0072 5.2766 12.1175C5.31182 12.2278 5.31522 12.3459 5.2864 12.4581L4.3369 16.1959C4.17546 16.8309 4.85103 17.3434 5.3944 16.9986L8.69065 14.9111C8.78329 14.8522 8.8908 14.8209 9.00059 14.8209C9.11037 14.8209 9.21788 14.8522 9.31052 14.9111H9.30996Z" fill="#FF8A00"/>
<path d="M27.31 14.9111L30.8565 17.1577C31.3099 17.4446 31.8724 17.0177 31.738 16.4884L30.7136 12.4581C30.6847 12.3458 30.6881 12.2276 30.7233 12.1172C30.7585 12.0067 30.8242 11.9085 30.9128 11.8337L34.0931 9.18711C34.5105 8.83949 34.2956 8.14593 33.7585 8.11105L29.6055 7.84105C29.4937 7.83312 29.3865 7.79359 29.2962 7.72707C29.206 7.66055 29.1365 7.56977 29.0959 7.4653L27.5468 3.56493C27.5046 3.45408 27.4297 3.35867 27.3321 3.29136C27.2344 3.22404 27.1186 3.18799 27 3.18799C26.8814 3.18799 26.7656 3.22404 26.668 3.29136C26.5703 3.35867 26.4955 3.45408 26.4533 3.56493L24.9041 7.4653C24.8636 7.56988 24.7942 7.66077 24.7039 7.7274C24.6137 7.79402 24.5064 7.83364 24.3945 7.84161L20.2416 8.11161C19.705 8.14593 19.489 8.83949 19.9069 9.18711L23.0873 11.8342C23.1758 11.909 23.2414 12.0072 23.2766 12.1175C23.3118 12.2278 23.3152 12.3459 23.2864 12.4581L22.3369 16.1959C22.1755 16.8309 22.851 17.3434 23.3944 16.9986L26.6906 14.9111C26.7833 14.8522 26.8908 14.8209 27.0006 14.8209C27.1104 14.8209 27.2179 14.8522 27.3105 14.9111H27.31Z" fill="#FF8A00"/>
<path d="M45.31 14.9111L48.8565 17.1577C49.3099 17.4446 49.8724 17.0177 49.738 16.4884L48.7136 12.4581C48.6847 12.3458 48.6881 12.2276 48.7233 12.1172C48.7585 12.0067 48.8242 11.9085 48.9128 11.8337L52.0931 9.18711C52.5105 8.83949 52.2956 8.14593 51.7585 8.11105L47.6055 7.84105C47.4937 7.83312 47.3865 7.79359 47.2962 7.72707C47.206 7.66055 47.1365 7.56977 47.0959 7.4653L45.5468 3.56493C45.5046 3.45408 45.4297 3.35867 45.3321 3.29136C45.2344 3.22404 45.1186 3.18799 45 3.18799C44.8814 3.18799 44.7656 3.22404 44.668 3.29136C44.5703 3.35867 44.4955 3.45408 44.4533 3.56493L42.9041 7.4653C42.8636 7.56988 42.7942 7.66077 42.7039 7.7274C42.6137 7.79402 42.5064 7.83364 42.3945 7.84161L38.2416 8.11161C37.705 8.14593 37.489 8.83949 37.9069 9.18711L41.0873 11.8342C41.1758 11.909 41.2414 12.0072 41.2766 12.1175C41.3118 12.2278 41.3152 12.3459 41.2864 12.4581L40.3369 16.1959C40.1755 16.8309 40.851 17.3434 41.3944 16.9986L44.6906 14.9111C44.7833 14.8522 44.8908 14.8209 45.0006 14.8209C45.1104 14.8209 45.2179 14.8522 45.3105 14.9111H45.31Z" fill="#FF8A00"/>
<path d="M63.31 14.9111L66.8565 17.1577C67.3099 17.4446 67.8724 17.0177 67.738 16.4884L66.7136 12.4581C66.6847 12.3458 66.6881 12.2276 66.7233 12.1172C66.7585 12.0067 66.8242 11.9085 66.9128 11.8337L70.0931 9.18711C70.5105 8.83949 70.2956 8.14593 69.7585 8.11105L65.6055 7.84105C65.4937 7.83312 65.3865 7.79359 65.2962 7.72707C65.206 7.66055 65.1365 7.56977 65.0959 7.4653L63.5468 3.56493C63.5046 3.45408 63.4297 3.35867 63.3321 3.29136C63.2344 3.22404 63.1186 3.18799 63 3.18799C62.8814 3.18799 62.7656 3.22404 62.668 3.29136C62.5703 3.35867 62.4955 3.45408 62.4533 3.56493L60.9041 7.4653C60.8636 7.56988 60.7942 7.66077 60.7039 7.7274C60.6137 7.79402 60.5064 7.83364 60.3945 7.84161L56.2416 8.11161C55.705 8.14593 55.489 8.83949 55.9069 9.18711L59.0873 11.8342C59.1758 11.909 59.2414 12.0072 59.2766 12.1175C59.3118 12.2278 59.3152 12.3459 59.2864 12.4581L58.3369 16.1959C58.1755 16.8309 58.851 17.3434 59.3944 16.9986L62.6906 14.9111C62.7833 14.8522 62.8908 14.8209 63.0006 14.8209C63.1104 14.8209 63.2179 14.8522 63.3105 14.9111H63.31Z" fill="#FF8A00"/>
<path d="M81.31 14.9111L84.8565 17.1577C85.3099 17.4446 85.8724 17.0177 85.738 16.4884L84.7136 12.4581C84.6847 12.3458 84.6881 12.2276 84.7233 12.1172C84.7585 12.0067 84.8242 11.9085 84.9128 11.8337L88.0931 9.18711C88.5105 8.83949 88.2956 8.14593 87.7585 8.11105L83.6055 7.84105C83.4937 7.83312 83.3865 7.79359 83.2962 7.72707C83.206 7.66055 83.1365 7.56977 83.0959 7.4653L81.5468 3.56493C81.5046 3.45408 81.4297 3.35867 81.3321 3.29136C81.2344 3.22404 81.1186 3.18799 81 3.18799C80.8814 3.18799 80.7656 3.22404 80.668 3.29136C80.5703 3.35867 80.4955 3.45408 80.4533 3.56493L78.9041 7.4653C78.8636 7.56988 78.7942 7.66077 78.7039 7.7274C78.6137 7.79402 78.5064 7.83364 78.3945 7.84161L74.2416 8.11161C73.705 8.14593 73.489 8.83949 73.9069 9.18711L77.0873 11.8342C77.1758 11.909 77.2414 12.0072 77.2766 12.1175C77.3118 12.2278 77.3152 12.3459 77.2864 12.4581L76.3369 16.1959C76.1755 16.8309 76.851 17.3434 77.3944 16.9986L80.6906 14.9111C80.7833 14.8522 80.8908 14.8209 81.0006 14.8209C81.1104 14.8209 81.2179 14.8522 81.3105 14.9111H81.31Z" fill="#FF8A00"/>
<path d="M94.2924 12.746V11.78L99.2064 4.976H100.732V11.64H102.132V12.746H100.732V15H99.4724V12.746H94.2924ZM99.5284 6.306L95.7624 11.64H99.5284V6.306ZM112.486 15L110.162 11.01H108.622V15H107.348V5.242H110.498C111.235 5.242 111.856 5.368 112.36 5.62C112.873 5.872 113.256 6.21267 113.508 6.642C113.76 7.07133 113.886 7.56133 113.886 8.112C113.886 8.784 113.69 9.37667 113.298 9.89C112.915 10.4033 112.336 10.744 111.562 10.912L114.012 15H112.486ZM108.622 9.988H110.498C111.188 9.988 111.706 9.82 112.052 9.484C112.397 9.13867 112.57 8.68133 112.57 8.112C112.57 7.53333 112.397 7.08533 112.052 6.768C111.716 6.45067 111.198 6.292 110.498 6.292H108.622V9.988ZM122.865 10.87C122.865 11.1127 122.851 11.3693 122.823 11.64H116.691C116.738 12.396 116.994 12.9887 117.461 13.418C117.937 13.838 118.511 14.048 119.183 14.048C119.734 14.048 120.191 13.922 120.555 13.67C120.928 13.4087 121.19 13.0633 121.339 12.634H122.711C122.506 13.3713 122.095 13.9733 121.479 14.44C120.863 14.8973 120.098 15.126 119.183 15.126C118.455 15.126 117.802 14.9627 117.223 14.636C116.654 14.3093 116.206 13.8473 115.879 13.25C115.552 12.6433 115.389 11.9433 115.389 11.15C115.389 10.3567 115.548 9.66133 115.865 9.064C116.182 8.46667 116.626 8.00933 117.195 7.692C117.774 7.36533 118.436 7.202 119.183 7.202C119.911 7.202 120.555 7.36067 121.115 7.678C121.675 7.99533 122.104 8.434 122.403 8.994C122.711 9.54467 122.865 10.17 122.865 10.87ZM121.549 10.604C121.549 10.1187 121.442 9.70333 121.227 9.358C121.012 9.00333 120.718 8.73733 120.345 8.56C119.981 8.37333 119.575 8.28 119.127 8.28C118.483 8.28 117.932 8.48533 117.475 8.896C117.027 9.30667 116.77 9.876 116.705 10.604H121.549ZM127.403 13.824L129.783 7.328H131.141L128.131 15H126.647L123.637 7.328H125.009L127.403 13.824ZM133.052 6.082C132.81 6.082 132.604 5.998 132.436 5.83C132.268 5.662 132.184 5.45667 132.184 5.214C132.184 4.97133 132.268 4.766 132.436 4.598C132.604 4.43 132.81 4.346 133.052 4.346C133.286 4.346 133.482 4.43 133.64 4.598C133.808 4.766 133.892 4.97133 133.892 5.214C133.892 5.45667 133.808 5.662 133.64 5.83C133.482 5.998 133.286 6.082 133.052 6.082ZM133.668 7.328V15H132.394V7.328H133.668ZM142.84 10.87C142.84 11.1127 142.826 11.3693 142.798 11.64H136.666C136.712 12.396 136.969 12.9887 137.436 13.418C137.912 13.838 138.486 14.048 139.158 14.048C139.708 14.048 140.166 13.922 140.53 13.67C140.903 13.4087 141.164 13.0633 141.314 12.634H142.686C142.48 13.3713 142.07 13.9733 141.454 14.44C140.838 14.8973 140.072 15.126 139.158 15.126C138.43 15.126 137.776 14.9627 137.198 14.636C136.628 14.3093 136.18 13.8473 135.854 13.25C135.527 12.6433 135.364 11.9433 135.364 11.15C135.364 10.3567 135.522 9.66133 135.84 9.064C136.157 8.46667 136.6 8.00933 137.17 7.692C137.748 7.36533 138.411 7.202 139.158 7.202C139.886 7.202 140.53 7.36067 141.09 7.678C141.65 7.99533 142.079 8.434 142.378 8.994C142.686 9.54467 142.84 10.17 142.84 10.87ZM141.524 10.604C141.524 10.1187 141.416 9.70333 141.202 9.358C140.987 9.00333 140.693 8.73733 140.32 8.56C139.956 8.37333 139.55 8.28 139.102 8.28C138.458 8.28 137.907 8.48533 137.45 8.896C137.002 9.30667 136.745 9.876 136.68 10.604H141.524ZM154.741 7.328L152.347 15H151.031L149.183 8.91L147.335 15H146.019L143.611 7.328H144.913L146.677 13.768L148.581 7.328H149.883L151.745 13.782L153.481 7.328H154.741Z" fill="#666666"/>
</svg>
